<svg width="30" height="30" viewBox="0 0 30 30" fill="none" xmlns="http://www.w3.org/2000/svg">
<path d="M14.9999 3.75C15.6212 3.75 16.1249 4.25368 16.1249 4.875V17.2842L20.4546 12.9545C20.894 12.5151 21.6063 12.5151 22.0456 12.9545C22.485 13.3938 22.485 14.1061 22.0456 14.5455L15.7956 20.7955C15.3563 21.2348 14.644 21.2348 14.2046 20.7955L7.95463 14.5455C7.51529 14.1061 7.51529 13.3938 7.95463 12.9545C8.39397 12.5151 9.10628 12.5151 9.54562 12.9545L13.8749 17.2837L13.8749 4.875C13.8749 4.25368 14.3786 3.75 14.9999 3.75Z" fill="white"/>
<path fill-rule="evenodd" clip-rule="evenodd" d="M5.125 24.0338C5.125 23.4125 5.62868 22.9088 6.25 22.9088H23.75C24.3713 22.9088 24.875 23.4125 24.875 24.0338C24.875 24.6551 24.3713 25.1588 23.75 25.1588H6.25C5.62868 25.1588 5.125 24.6551 5.125 24.0338Z" fill="white"/>
</svg>
