<svg width="24" height="24" viewBox="0 0 24 24" fill="none" xmlns="http://www.w3.org/2000/svg">
<circle cx="12" cy="12" r="12" fill="#2B73E3"/>
<path d="M11.0621 6.5345C11.3843 5.66389 12.6157 5.66389 12.9379 6.53451L14.0012 9.40803C14.1024 9.68175 14.3182 9.89756 14.592 9.99885L17.4655 11.0621C18.3361 11.3843 18.3361 12.6157 17.4655 12.9379L14.592 14.0012C14.3182 14.1024 14.1024 14.3182 14.0012 14.592L12.9379 17.4655C12.6157 18.3361 11.3843 18.3361 11.0621 17.4655L9.99885 14.592C9.89756 14.3182 9.68175 14.1024 9.40803 14.0012L6.5345 12.9379C5.66389 12.6157 5.66389 11.3843 6.53451 11.0621L9.40803 9.99885C9.68175 9.89756 9.89756 9.68175 9.99885 9.40803L11.0621 6.5345Z" fill="white"/>
</svg>
