<svg width="24" height="24" viewBox="0 0 24 24" fill="none" xmlns="http://www.w3.org/2000/svg">
<path d="M1.13412 6C0.508295 6 0 6.50433 0 7.12765V14.9116C0 15.9427 0.561182 16.8929 1.46644 17.3955C2.54346 17.9935 3.85545 17.9935 4.93247 17.3955C5.83773 16.8929 6.39891 15.9427 6.39891 14.9116V7.12765C6.39891 6.50433 5.89061 6 5.26479 6C4.63896 6 4.13067 6.50433 4.13067 7.12765V14.9116C4.13067 15.1251 4.01451 15.3221 3.82657 15.4264C3.43686 15.6428 2.96204 15.6428 2.57234 15.4264C2.38439 15.3221 2.26824 15.1251 2.26824 14.9116V7.12765C2.26824 6.50433 1.75995 6 1.13412 6Z" fill="#E83388"/>
<path d="M9.10841 6C8.48259 6 7.97429 6.50433 7.97429 7.12765L7.97429 16.7393C7.97429 17.3626 8.48259 17.8669 9.10841 17.8669C9.73424 17.8669 10.2425 17.3626 10.2425 16.7393V12.8985C10.5045 12.9702 10.7803 13.0085 11.065 13.0085C12.7715 13.0085 14.1558 11.6336 14.1558 9.93636V7.12765C14.1558 6.50434 13.6475 6 13.0217 6C12.3959 6 11.8876 6.50433 11.8876 7.12765V9.93636C11.8876 10.387 11.5198 10.7532 11.065 10.7532C10.6103 10.7532 10.2425 10.387 10.2425 9.93636V7.12765C10.2425 7.08877 10.2406 7.05032 10.2367 7.01241C10.1785 6.44326 9.69521 6 9.10841 6Z" fill="#E83388"/>
<path d="M16.6288 6C16.003 6 15.4947 6.50433 15.4947 7.12765V16.7393C15.4947 17.3626 16.003 17.8669 16.6288 17.8669C17.2546 17.8669 17.7629 17.3626 17.7629 16.7393V13.0085H22.8659C23.4917 13.0085 24 12.5042 24 11.8809C24 11.2575 23.4917 10.7532 22.8659 10.7532H22.0941C21.3992 10.7532 20.8368 10.1935 20.8368 9.50425C20.8368 8.815 21.3992 8.2553 22.0941 8.2553H22.2577C22.8835 8.2553 23.3918 7.75096 23.3918 7.12765C23.3918 6.50433 22.8835 6 22.2577 6H22.0941C20.1475 6 18.5686 7.56838 18.5686 9.50425C18.5686 9.94408 18.6501 10.3652 18.7991 10.7532H17.7629V7.12765C17.7629 6.50433 17.2546 6 16.6288 6Z" fill="#E83388"/>
</svg>
