<svg width="100" height="100" viewBox="0 0 100 100" fill="none" xmlns="http://www.w3.org/2000/svg">
<rect width="100" height="100" rx="35" fill="#E83388"/>
<path d="M27.6972 37.9375C28.9348 37.9375 29.938 38.9222 29.938 40.1369V56.6451C29.938 57.1679 30.2261 57.6498 30.6911 57.9048C31.5866 58.3959 32.6776 58.3959 33.5731 57.9048C34.0381 57.6498 34.3262 57.1679 34.3262 56.6451V40.1369C34.3262 38.9222 35.3294 37.9375 36.567 37.9375C37.8045 37.9375 38.8078 38.9222 38.8078 40.1369V56.6451C38.8078 58.7616 37.6414 60.7126 35.759 61.7449C33.505 62.9809 30.7592 62.9809 28.5052 61.7449C26.6228 60.7126 25.4564 58.7616 25.4564 56.6451V40.1369C25.4564 38.9222 26.4597 37.9375 27.6972 37.9375Z" fill="white"/>
<path d="M47.0496 39.912C46.9348 38.803 45.9806 37.9375 44.8204 37.9375C43.5828 37.9375 42.5796 38.9222 42.5796 40.1369L42.5796 60.5211C42.5796 61.7358 43.5828 62.7205 44.8204 62.7205C46.0579 62.7205 47.0612 61.7358 47.0612 60.5211V52.1186C47.6794 52.3123 48.3382 52.4168 49.0218 52.4168C52.5798 52.4168 55.4641 49.5858 55.4641 46.0936V40.1369C55.4641 38.9222 54.4609 37.9375 53.2233 37.9375C51.9858 37.9375 50.9825 38.9222 50.9825 40.1369V46.0936C50.9825 47.1564 50.1047 48.018 49.0218 48.018C47.939 48.018 47.0612 47.1564 47.0612 46.0936V40.1369C47.0612 40.061 47.0572 39.986 47.0496 39.912Z" fill="white"/>
<path d="M63.2097 40.1369C63.2097 38.9222 62.2064 37.9375 60.9689 37.9375C59.7313 37.9375 58.7281 38.9222 58.7281 40.1369V60.5211C58.7281 61.7358 59.7313 62.7205 60.9689 62.7205C62.2064 62.7205 63.2097 61.7358 63.2097 60.5211V52.4168L74.3306 52.4168C75.5682 52.4168 76.5714 51.4321 76.5714 50.2174C76.5714 49.0027 75.5682 48.018 74.3306 48.018H72.3473C70.7488 48.018 69.453 46.7461 69.453 45.1772C69.453 43.6082 70.7488 42.3363 72.3473 42.3363H73.0246C74.2622 42.3363 75.2654 41.3516 75.2654 40.1369C75.2654 38.9222 74.2622 37.9375 73.0246 37.9375L72.3473 37.9375C68.2737 37.9375 64.9714 41.1788 64.9714 45.1772C64.9714 46.1856 65.1814 47.1458 65.5609 48.018H63.2097V40.1369Z" fill="white"/>
</svg>
