<svg width="72" height="72" viewBox="0 0 72 72" fill="none" xmlns="http://www.w3.org/2000/svg">
<path d="M8.63028 20C10.0829 20 11.2606 21.192 11.2606 22.6624V42.6456C11.2606 43.2785 11.5987 43.8618 12.1445 44.1705C13.1957 44.765 14.4764 44.765 15.5276 44.1705C16.0734 43.8618 16.4115 43.2785 16.4115 42.6456V22.6624C16.4115 21.192 17.5892 20 19.0418 20C20.4945 20 21.6721 21.192 21.6721 22.6624V42.6456C21.6721 45.2077 20.303 47.5693 18.0934 48.8189C15.4476 50.3152 12.2245 50.3152 9.57875 48.8189C7.36908 47.5693 6 45.2077 6 42.6456V22.6624C6 21.192 7.17762 20 8.63028 20Z" fill="#E83388"/>
<path d="M31.3466 22.3902C31.2119 21.0476 30.0917 20 28.7299 20C27.2772 20 26.0996 21.192 26.0996 22.6624L26.0996 47.3376C26.0996 48.808 27.2772 50 28.7299 50C30.1825 50 31.3601 48.808 31.3601 47.3376V37.1664C32.0858 37.4008 32.8591 37.5273 33.6616 37.5273C37.8381 37.5273 41.2237 34.1003 41.2237 29.873V22.6624C41.2237 21.192 40.0461 20 38.5934 20C37.1408 20 35.9631 21.192 35.9631 22.6624V29.873C35.9631 31.1596 34.9327 32.2026 33.6616 32.2026C32.3906 32.2026 31.3601 31.1596 31.3601 29.873V22.6624C31.3601 22.5705 31.3555 22.4797 31.3466 22.3902Z" fill="#E83388"/>
<path d="M50.3157 22.6624C50.3157 21.192 49.138 20 47.6854 20C46.2327 20 45.0551 21.192 45.0551 22.6624V47.3376C45.0551 48.808 46.2327 50 47.6854 50C49.138 50 50.3157 48.808 50.3157 47.3376V37.5273L63.3697 37.5273C64.8224 37.5273 66 36.3353 66 34.8649C66 33.3945 64.8224 32.2026 63.3697 32.2026H61.0416C59.1653 32.2026 57.6442 30.6629 57.6442 28.7637C57.6442 26.8644 59.1653 25.3248 61.0416 25.3248H61.8367C63.2893 25.3248 64.467 24.1328 64.467 22.6624C64.467 21.192 63.2893 20 61.8367 20L61.0416 20C56.2599 20 52.3836 23.9236 52.3836 28.7637C52.3836 29.9843 52.6302 31.1467 53.0756 32.2026H50.3157V22.6624Z" fill="#E83388"/>
</svg>
