<svg width="226" height="226" viewBox="0 0 226 226" fill="none" xmlns="http://www.w3.org/2000/svg">
<rect x="0.75" y="0.75" width="224.5" height="224.5" rx="11.25" fill="white" stroke="black" stroke-width="1.5"/>
<path d="M20.4707 20.0944V28.9425V37.7907V46.6388V55.487V64.3351V73.1833V82.0314H29.3189H38.167H47.0152H55.8633H64.7114H73.5596H82.4077V73.1833V64.3351V55.487V46.6388V37.7907V28.9425V20.0944H73.5596H64.7114H55.8633H47.0152H38.167H29.3189H20.4707ZM91.2559 20.0944V28.9425V37.7907H100.104V28.9425H108.952V20.0944H100.104H91.2559ZM108.952 28.9425V37.7907H117.8V28.9425H108.952ZM117.8 37.7907V46.6388H126.648H135.497V37.7907V28.9425V20.0944H126.648V28.9425V37.7907H117.8ZM117.8 46.6388H108.952H100.104H91.2559V55.487H100.104H108.952V64.3351H100.104V73.1833H108.952V82.0314H117.8V73.1833H126.648V82.0314H117.8V90.8796H108.952V99.7277H117.8H126.648V108.576H135.497V99.7277V90.8796V82.0314V73.1833V64.3351H126.648V55.487H117.8V46.6388ZM126.648 108.576H117.8V117.424H108.952V126.272V135.12H117.8V143.968V152.817H108.952H100.104V143.968H108.952V135.12H100.104V126.272V117.424H91.2559V108.576H100.104V117.424H108.952V108.576V99.7277H100.104H91.2559V90.8796H82.4077H73.5596H64.7114V99.7277H55.8633V108.576H47.0152V99.7277H55.8633V90.8796H47.0152H38.167V99.7277H29.3189V108.576V117.424V126.272H38.167V117.424H47.0152H55.8633H64.7114V108.576H73.5596V99.7277H82.4077V108.576H73.5596V117.424H82.4077V126.272H73.5596V135.12H82.4077H91.2559V143.968V152.817V161.665H100.104V170.513H108.952H117.8H126.648V179.361H117.8H108.952H100.104V170.513H91.2559V179.361V188.209H100.104V197.057H91.2559V205.906H100.104H108.952V197.057H117.8V205.906H126.648H135.497H144.345H153.193V197.057H162.041V205.906H170.889H179.737H188.586V197.057H179.737H170.889V188.209H162.041V179.361H153.193V188.209H144.345H135.497V197.057H126.648V188.209H135.497V179.361V170.513V161.665H144.345V152.817H135.497H126.648V143.968H135.497V135.12V126.272V117.424H126.648V108.576ZM153.193 179.361V170.513H144.345V179.361H153.193ZM170.889 188.209H179.737H188.586V179.361H179.737H170.889V188.209ZM188.586 179.361H197.434V170.513V161.665V152.817V143.968H188.586H179.737H170.889V135.12H162.041V143.968H153.193V152.817V161.665H162.041V152.817H170.889V161.665V170.513H179.737H188.586V179.361ZM162.041 135.12V126.272H153.193H144.345V135.12H153.193H162.041ZM170.889 135.12H179.737V126.272V117.424V108.576H188.586V117.424H197.434V126.272H206.282V117.424V108.576H197.434V99.7277H206.282V90.8796H197.434H188.586V99.7277H179.737V90.8796H170.889V99.7277H162.041V108.576H170.889V117.424V126.272V135.12ZM162.041 108.576H153.193V117.424H162.041V108.576ZM197.434 126.272H188.586V135.12H197.434V126.272ZM73.5596 126.272V117.424H64.7114V126.272H73.5596ZM64.7114 126.272H55.8633H47.0152H38.167V135.12H47.0152H55.8633H64.7114V126.272ZM29.3189 126.272H20.4707V135.12H29.3189V126.272ZM29.3189 99.7277V90.8796H20.4707V99.7277H29.3189ZM91.2559 90.8796H100.104V82.0314V73.1833H91.2559V82.0314V90.8796ZM144.345 20.0944V28.9425V37.7907V46.6388V55.487V64.3351V73.1833V82.0314H153.193H162.041H170.889H179.737H188.586H197.434H206.282V73.1833V64.3351V55.487V46.6388V37.7907V28.9425V20.0944H197.434H188.586H179.737H170.889H162.041H153.193H144.345ZM29.3189 28.9425H38.167H47.0152H55.8633H64.7114H73.5596V37.7907V46.6388V55.487V64.3351V73.1833H64.7114H55.8633H47.0152H38.167H29.3189V64.3351V55.487V46.6388V37.7907V28.9425ZM153.193 28.9425H162.041H170.889H179.737H188.586H197.434V37.7907V46.6388V55.487V64.3351V73.1833H188.586H179.737H170.889H162.041H153.193V64.3351V55.487V46.6388V37.7907V28.9425ZM38.167 37.7907V46.6388V55.487V64.3351H47.0152H55.8633H64.7114V55.487V46.6388V37.7907H55.8633H47.0152H38.167ZM162.041 37.7907V46.6388V55.487V64.3351H170.889H179.737H188.586V55.487V46.6388V37.7907H179.737H170.889H162.041ZM144.345 90.8796V99.7277H153.193V90.8796H144.345ZM20.4707 143.968V152.817V161.665V170.513V179.361V188.209V197.057V205.906H29.3189H38.167H47.0152H55.8633H64.7114H73.5596H82.4077V197.057V188.209V179.361V170.513V161.665V152.817V143.968H73.5596H64.7114H55.8633H47.0152H38.167H29.3189H20.4707ZM29.3189 152.817H38.167H47.0152H55.8633H64.7114H73.5596V161.665V170.513V179.361V188.209V197.057H64.7114H55.8633H47.0152H38.167H29.3189V188.209V179.361V170.513V161.665V152.817ZM38.167 161.665V170.513V179.361V188.209H47.0152H55.8633H64.7114V179.361V170.513V161.665H55.8633H47.0152H38.167ZM197.434 188.209V197.057H206.282V188.209H197.434Z" fill="black"/>
</svg>
