<svg width="32" height="32" viewBox="0 0 32 32" fill="none" xmlns="http://www.w3.org/2000/svg">
<rect width="32" height="32" fill="white"/>
<path d="M6.14581 10.5156C5.56736 10.5156 5.09753 10.9818 5.09753 11.5579V18.7527C5.09753 19.7058 5.61624 20.584 6.45298 21.0486C7.44847 21.6013 8.66116 21.6013 9.65665 21.0486C10.4934 20.584 11.0121 19.7058 11.0121 18.7527V11.5579C11.0121 10.9818 10.5423 10.5156 9.96382 10.5156C9.38537 10.5156 8.91554 10.9818 8.91554 11.5579V18.7527C8.91554 18.95 8.80818 19.1321 8.63446 19.2285C8.27426 19.4285 7.83538 19.4285 7.47517 19.2285C7.30145 19.1321 7.19409 18.95 7.19409 18.7527V11.5579C7.19409 10.9818 6.72427 10.5156 6.14581 10.5156Z" fill="#E83388"/>
<path d="M13.5165 10.5156C12.9381 10.5156 12.4682 10.9818 12.4682 11.5579L12.4682 20.442C12.4682 21.0182 12.9381 21.4843 13.5165 21.4843C14.095 21.4843 14.5648 21.0182 14.5648 20.442V16.892C14.8069 16.9583 15.0619 16.9936 15.325 16.9936C16.9023 16.9936 18.1819 15.7228 18.1819 14.154V11.5579C18.1819 10.9818 17.712 10.5156 17.1336 10.5156C16.5551 10.5156 16.0853 10.9818 16.0853 11.5579V14.154C16.0853 14.5705 15.7454 14.9091 15.325 14.9091C14.9047 14.9091 14.5648 14.5705 14.5648 14.154V11.5579C14.5648 11.522 14.563 11.4864 14.5594 11.4514C14.5056 10.9253 14.0589 10.5156 13.5165 10.5156Z" fill="#E83388"/>
<path d="M20.4677 10.5156C19.8892 10.5156 19.4194 10.9818 19.4194 11.5579V20.442C19.4194 21.0182 19.8892 21.4843 20.4677 21.4843C21.0461 21.4843 21.516 21.0182 21.516 20.442V16.9936H26.2327C26.8111 16.9936 27.2809 16.5275 27.2809 15.9514C27.2809 15.3752 26.8111 14.9091 26.2327 14.9091H25.5193C24.877 14.9091 24.3572 14.3917 24.3572 13.7546C24.3572 13.1176 24.877 12.6002 25.5193 12.6002H25.6705C26.2489 12.6002 26.7188 12.1341 26.7188 11.5579C26.7188 10.9818 26.2489 10.5156 25.6705 10.5156H25.5193C23.7201 10.5156 22.2606 11.9653 22.2606 13.7546C22.2606 14.1612 22.336 14.5504 22.4737 14.9091H21.516V11.5579C21.516 10.9818 21.0461 10.5156 20.4677 10.5156Z" fill="#E83388"/>
</svg>
